<mxfile host="app.diagrams.net" modified="2020-09-11T16:34:57.120Z" agent="5.0 (Windows NT 10.0; Win64; x64) AppleWebKit/537.36 (KHTML, like Gecko) Chrome/85.0.4183.102 Safari/537.36" etag="sjDUX1cu1lf3mta3quNE" version="13.6.9" type="github">
  <diagram id="ooo_lThBW3f-kNAWSfSv" name="Page-1">
    <mxGraphModel dx="1038" dy="580" grid="1" gridSize="10" guides="1" tooltips="1" connect="1" arrows="1" fold="1" page="1" pageScale="1" pageWidth="827" pageHeight="1169" math="0" shadow="0">
      <root>
        <mxCell id="0" />
        <mxCell id="1" parent="0" />
        <mxCell id="XG3Vg-fir7J1auHV95Xj-5" value="&lt;div style=&quot;text-align: center&quot;&gt;&lt;b&gt;&amp;nbsp;Application Server&lt;/b&gt;&lt;span&gt;&amp;nbsp;&lt;/span&gt;&lt;/div&gt;&lt;br&gt;&lt;br&gt;&lt;br&gt;&lt;br&gt;&lt;br&gt;&lt;br&gt;&lt;div style=&quot;text-align: center&quot;&gt;&lt;span&gt;IIS/WAS/Tomcat&lt;/span&gt;&lt;/div&gt;" style="whiteSpace=wrap;html=1;aspect=fixed;shadow=0;labelBackgroundColor=none;sketch=0;align=left;fillColor=none;strokeColor=#FFB570;strokeWidth=5;" vertex="1" parent="1">
          <mxGeometry x="370" y="80" width="120" height="120" as="geometry" />
        </mxCell>
        <mxCell id="XG3Vg-fir7J1auHV95Xj-7" value="" style="aspect=fixed;html=1;points=[];align=center;image;fontSize=12;image=img/lib/mscae/VM_Linux.svg;shadow=0;labelBackgroundColor=none;sketch=0;strokeColor=#FFB570;strokeWidth=5;fillColor=none;gradientColor=none;" vertex="1" parent="1">
          <mxGeometry x="397.39" y="280" width="32.61" height="30" as="geometry" />
        </mxCell>
        <mxCell id="XG3Vg-fir7J1auHV95Xj-8" value="" style="aspect=fixed;html=1;points=[];align=center;image;fontSize=12;image=img/lib/mscae/VirtualMachineWindows.svg;shadow=0;labelBackgroundColor=none;sketch=0;strokeColor=#FFB570;strokeWidth=5;fillColor=none;gradientColor=none;" vertex="1" parent="1">
          <mxGeometry x="430" y="280" width="32.61" height="30" as="geometry" />
        </mxCell>
        <mxCell id="XG3Vg-fir7J1auHV95Xj-9" value="" style="pointerEvents=1;shadow=0;dashed=0;html=1;strokeColor=none;fillColor=#505050;labelPosition=center;verticalLabelPosition=bottom;verticalAlign=top;outlineConnect=0;align=center;shape=mxgraph.office.servers.application_server_green;labelBackgroundColor=none;sketch=0;" vertex="1" parent="1">
          <mxGeometry x="407" y="112" width="46" height="56" as="geometry" />
        </mxCell>
        <mxCell id="XG3Vg-fir7J1auHV95Xj-10" value="" style="pointerEvents=1;shadow=0;dashed=0;html=1;strokeColor=none;fillColor=#505050;labelPosition=center;verticalLabelPosition=bottom;verticalAlign=top;outlineConnect=0;align=center;shape=mxgraph.office.servers.file_server;labelBackgroundColor=none;sketch=0;" vertex="1" parent="1">
          <mxGeometry x="657.5" y="177" width="45" height="56" as="geometry" />
        </mxCell>
        <mxCell id="XG3Vg-fir7J1auHV95Xj-11" value="" style="pointerEvents=1;shadow=0;dashed=0;html=1;strokeColor=none;fillColor=#505050;labelPosition=center;verticalLabelPosition=bottom;verticalAlign=top;outlineConnect=0;align=center;shape=mxgraph.office.servers.file_server;labelBackgroundColor=none;sketch=0;" vertex="1" parent="1">
          <mxGeometry x="162.5" y="392" width="45" height="56" as="geometry" />
        </mxCell>
        <mxCell id="XG3Vg-fir7J1auHV95Xj-12" value="" style="pointerEvents=1;shadow=0;dashed=0;html=1;strokeColor=none;fillColor=#505050;labelPosition=center;verticalLabelPosition=bottom;verticalAlign=top;outlineConnect=0;align=center;shape=mxgraph.office.services.web_services;labelBackgroundColor=none;sketch=0;" vertex="1" parent="1">
          <mxGeometry x="150" y="172" width="60" height="56" as="geometry" />
        </mxCell>
        <mxCell id="XG3Vg-fir7J1auHV95Xj-13" value="" style="pointerEvents=1;shadow=0;dashed=0;html=1;strokeColor=none;fillColor=#505050;labelPosition=center;verticalLabelPosition=bottom;verticalAlign=top;outlineConnect=0;align=center;shape=mxgraph.office.services.central_management_service;labelBackgroundColor=none;sketch=0;" vertex="1" parent="1">
          <mxGeometry x="404.5" y="393" width="51" height="54" as="geometry" />
        </mxCell>
        <mxCell id="XG3Vg-fir7J1auHV95Xj-15" value="&lt;div&gt;&lt;b&gt;&amp;nbsp;Local Storage&lt;/b&gt;&lt;span&gt;&amp;nbsp;&lt;/span&gt;&lt;/div&gt;&lt;br&gt;&lt;br&gt;&lt;br&gt;&lt;br&gt;&lt;br&gt;&lt;br&gt;&lt;div&gt;&lt;span&gt;&lt;b&gt;File System&lt;/b&gt;&lt;/span&gt;&lt;/div&gt;" style="whiteSpace=wrap;html=1;aspect=fixed;shadow=0;labelBackgroundColor=none;sketch=0;align=center;fillColor=none;strokeWidth=5;strokeColor=#B9E0A5;" vertex="1" parent="1">
          <mxGeometry x="620" y="145" width="120" height="120" as="geometry" />
        </mxCell>
        <mxCell id="XG3Vg-fir7J1auHV95Xj-16" value="&lt;div style=&quot;text-align: center&quot;&gt;&lt;b&gt;Windows/Unix Server&lt;/b&gt;&lt;span&gt;&amp;nbsp;&lt;/span&gt;&lt;br&gt;&lt;/div&gt;&lt;div style=&quot;text-align: center&quot;&gt;&lt;span&gt;&lt;br&gt;&lt;/span&gt;&lt;/div&gt;&lt;div style=&quot;text-align: center&quot;&gt;&lt;span&gt;&lt;br&gt;&lt;/span&gt;&lt;/div&gt;&lt;br&gt;&lt;br&gt;&lt;br&gt;" style="whiteSpace=wrap;html=1;aspect=fixed;shadow=0;labelBackgroundColor=none;sketch=0;align=left;fillColor=none;strokeColor=#FFB570;strokeWidth=5;" vertex="1" parent="1">
          <mxGeometry x="370" y="220" width="120" height="120" as="geometry" />
        </mxCell>
        <mxCell id="XG3Vg-fir7J1auHV95Xj-17" value="&lt;div&gt;&lt;b&gt;&amp;nbsp;Server&lt;/b&gt;&lt;span&gt;&amp;nbsp;&lt;/span&gt;&lt;/div&gt;&lt;br&gt;&lt;br&gt;&lt;br&gt;&lt;br&gt;&lt;br&gt;&lt;br&gt;&lt;div&gt;&lt;span&gt;Control M&lt;/span&gt;&lt;/div&gt;" style="whiteSpace=wrap;html=1;aspect=fixed;shadow=0;labelBackgroundColor=none;sketch=0;align=center;fillColor=none;strokeColor=#FFB570;strokeWidth=5;" vertex="1" parent="1">
          <mxGeometry x="370" y="360" width="120" height="120" as="geometry" />
        </mxCell>
        <mxCell id="XG3Vg-fir7J1auHV95Xj-18" value="&lt;div&gt;&lt;b&gt;&amp;nbsp;Cloud Server&lt;/b&gt;&lt;span&gt;&amp;nbsp;&lt;/span&gt;&lt;/div&gt;&lt;br&gt;&lt;br&gt;&lt;br&gt;&lt;br&gt;&lt;br&gt;&lt;br&gt;&lt;div&gt;&lt;span&gt;RESTfull Service&amp;nbsp;&lt;/span&gt;&lt;/div&gt;" style="whiteSpace=wrap;html=1;aspect=fixed;shadow=0;labelBackgroundColor=none;sketch=0;align=center;fillColor=none;strokeWidth=5;strokeColor=#B9E0A5;" vertex="1" parent="1">
          <mxGeometry x="120" y="140" width="120" height="120" as="geometry" />
        </mxCell>
        <mxCell id="XG3Vg-fir7J1auHV95Xj-19" value="&lt;div style=&quot;text-align: center&quot;&gt;&lt;b&gt;&amp;nbsp; &amp;nbsp;Remote Storage&lt;/b&gt;&lt;span&gt;&amp;nbsp;&lt;/span&gt;&lt;/div&gt;&lt;br&gt;&lt;br&gt;&lt;br&gt;&lt;br&gt;&lt;br&gt;&lt;br&gt;&lt;div style=&quot;text-align: center&quot;&gt;&lt;span&gt;&lt;b&gt;File System&lt;/b&gt;&lt;/span&gt;&lt;/div&gt;" style="whiteSpace=wrap;html=1;aspect=fixed;shadow=0;labelBackgroundColor=none;sketch=0;align=left;fillColor=none;strokeWidth=5;strokeColor=#B9E0A5;" vertex="1" parent="1">
          <mxGeometry x="125" y="360" width="120" height="120" as="geometry" />
        </mxCell>
        <mxCell id="XG3Vg-fir7J1auHV95Xj-21" value="I/O call&lt;br&gt;&lt;br&gt;&lt;br&gt;" style="shape=doubleArrow;whiteSpace=wrap;html=1;shadow=0;labelBackgroundColor=none;sketch=0;strokeWidth=5;fillColor=#7EA6E0;strokeColor=none;gradientDirection=north;gradientColor=#D4E1F5;" vertex="1" parent="1">
          <mxGeometry x="520" y="190" width="70" height="40" as="geometry" />
        </mxCell>
        <mxCell id="XG3Vg-fir7J1auHV95Xj-22" value="HTTPS&lt;br&gt;&lt;br&gt;&lt;br&gt;&lt;br&gt;" style="shape=doubleArrow;whiteSpace=wrap;html=1;shadow=0;labelBackgroundColor=none;sketch=0;strokeWidth=5;fillColor=#7EA6E0;strokeColor=none;gradientDirection=north;gradientColor=#D4E1F5;" vertex="1" parent="1">
          <mxGeometry x="260" y="190" width="70" height="40" as="geometry" />
        </mxCell>
        <mxCell id="XG3Vg-fir7J1auHV95Xj-24" value="SFTP&lt;br&gt;&lt;br&gt;&lt;br&gt;&lt;br&gt;" style="shape=doubleArrow;whiteSpace=wrap;html=1;shadow=0;labelBackgroundColor=none;sketch=0;strokeWidth=5;fillColor=#7EA6E0;strokeColor=none;gradientDirection=north;gradientColor=#D4E1F5;" vertex="1" parent="1">
          <mxGeometry x="260" y="410" width="70" height="40" as="geometry" />
        </mxCell>
        <mxCell id="XG3Vg-fir7J1auHV95Xj-26" value="&lt;div&gt;&lt;span&gt;&amp;nbsp; &amp;nbsp; &amp;nbsp; &amp;nbsp; &amp;nbsp; &amp;nbsp; &amp;nbsp; &amp;nbsp; &amp;nbsp; &amp;nbsp; &amp;nbsp; &amp;nbsp;SFTP&amp;nbsp; &amp;nbsp; &amp;nbsp; &amp;nbsp; &amp;nbsp;&lt;/span&gt;&lt;/div&gt;" style="html=1;shadow=0;dashed=0;align=right;verticalAlign=middle;shape=mxgraph.arrows2.bendDoubleArrow;dy=8;dx=29;arrowHead=40;rounded=1;labelBackgroundColor=none;sketch=0;strokeWidth=1;fillColor=#7EA6E0;gradientColor=#D4E1F5;direction=west;strokeColor=none;" vertex="1" parent="1">
          <mxGeometry x="510" y="300" width="190" height="160" as="geometry" />
        </mxCell>
        <mxCell id="XG3Vg-fir7J1auHV95Xj-27" value="&lt;b&gt;&lt;font style=&quot;font-size: 20px&quot;&gt;Application&lt;/font&gt;&lt;/b&gt;" style="text;html=1;strokeColor=none;fillColor=none;align=center;verticalAlign=middle;whiteSpace=wrap;rounded=0;shadow=0;labelBackgroundColor=none;sketch=0;" vertex="1" parent="1">
          <mxGeometry x="410" y="40" width="40" height="20" as="geometry" />
        </mxCell>
      </root>
    </mxGraphModel>
  </diagram>
</mxfile>
